<?xml version="1.0" standalone="no"?><!DOCTYPE svg PUBLIC "-//W3C//DTD SVG 1.1//EN" "http://www.w3.org/Graphics/SVG/1.1/DTD/svg11.dtd"><svg t="1676030270170" class="icon" viewBox="0 0 1490 1024" version="1.1" xmlns="http://www.w3.org/2000/svg" p-id="733" xmlns:xlink="http://www.w3.org/1999/xlink" width="291.015625" height="200"><path d="M760.075839 336.880303l-1.990071 7.047348c-10.298454 34.139901-88.508909 358.00921-94.833789 384.201963-1.444936 3.973574-11.020922 29.082625-28.721391 29.082625-29.266526 0-42.448284-42.809518-42.448284-42.986851-4.696043-16.446001-21.857944-25.838086-38.290809-21.142043-16.439433 4.696043-25.831518 21.857944-21.135476 38.297377 9.392085 32.511064 41.541915 87.786441 102.05847 87.786441 52.385504 0 80.200526-46.421859 88.147675-73.875646 0.183901-0.545135 0.361234-1.09027 0.361234-1.451504 29.082625-120.481406 86.164172-355.48714 94.111321-382.034558l2.167404-7.402014c6.32488-21.680611 25.647617-87.609108 50.763235-87.609108 22.035277 0 25.831518 37.752242 25.831518 38.658611 1.444936 16.978 16.071631 29.621192 33.2401 28.353589 16.978-1.261035 29.805093-16.255532 28.544057-33.233532-2.535206-33.056199-24.209249-95.73359-87.609108-95.73359C798.727881 204.839407 772.712462 294.064217 760.075839 336.880303z" p-id="734"></path></svg>