<?xml version="1.0" standalone="no"?><!DOCTYPE svg PUBLIC "-//W3C//DTD SVG 1.1//EN" "http://www.w3.org/Graphics/SVG/1.1/DTD/svg11.dtd"><svg t="1676030287332" class="icon" viewBox="0 0 1024 1024" version="1.1" xmlns="http://www.w3.org/2000/svg" p-id="874" xmlns:xlink="http://www.w3.org/1999/xlink" width="200" height="200"><path d="M873.386667 314.453333v-3.413333l-2.56-6.4a30.293333 30.293333 0 0 0-2.986667-3.84 40.106667 40.106667 0 0 0-3.84-5.12l-3.84-2.986667-6.826667-3.413333-320-197.546667a42.666667 42.666667 0 0 0-45.226666 0L170.666667 289.28l-3.84 3.413333-3.84 2.986667a40.106667 40.106667 0 0 0-3.84 5.12 30.293333 30.293333 0 0 0-2.986667 3.84l-2.56 6.4v3.413333a49.066667 49.066667 0 0 0 0 11.093334v372.906666a42.666667 42.666667 0 0 0 20.053333 36.266667l320 197.546667a20.053333 20.053333 0 0 0 6.4 2.56h3.413334a36.693333 36.693333 0 0 0 22.186666 0h3.413334a20.053333 20.053333 0 0 0 6.4-2.56L853.333333 734.72a42.666667 42.666667 0 0 0 20.053334-36.266667V325.546667a49.066667 49.066667 0 0 0 0-11.093334zM469.333333 819.626667l-234.666666-145.066667V402.346667l234.666666 144.64z m42.666667-346.453334L273.066667 325.546667 512 178.346667l238.933333 147.2z m277.333333 201.386667l-234.666666 145.066667v-272.64l234.666666-144.64z" p-id="875"></path></svg>