<?xml version="1.0" standalone="no"?><!DOCTYPE svg PUBLIC "-//W3C//DTD SVG 1.1//EN" "http://www.w3.org/Graphics/SVG/1.1/DTD/svg11.dtd"><svg t="1676030955379" class="icon" viewBox="0 0 1024 1024" version="1.1" xmlns="http://www.w3.org/2000/svg" p-id="755" xmlns:xlink="http://www.w3.org/1999/xlink" width="200" height="200"><path d="M384 32L0 416l384 384 384-384L384 32z m0 89.6l294.4 294.4-294.4 294.4L89.6 416 384 121.6zM384 256a32 32 0 0 0 0 64 32 32 0 0 0 0-64z m-128 128a32 32 0 0 0 0 64 32 32 0 0 0 0-64z m128 0a32 32 0 0 0 0 64 32 32 0 0 0 0-64z m128 0a32 32 0 0 0 0 64 32 32 0 0 0 0-64z m345.6 32l-64 64H960v384H576v-166.4l-64 64V928h512V416h-166.4zM384 512a32 32 0 0 0 0 64 32 32 0 0 0 0-64z m384 128a32 32 0 0 0 0 64 32 32 0 0 0 0-64z" p-id="756"></path></svg>